# xmcd
#
# Track frame offsets: 
#        150
#        14714
#        28778
#        44661
#        60582
#        72693
#        85162
#        97254
#        110016
#        123603
#        134163
#        145661
#        158587
#        169493
#        182201
#        195401
#        206591
#        218104
#
# Disc length: 3070 seconds
#
# Revision: 2
# Processed by: cddbd v1.5.2PL0 Copyright (c) Steve Scherf et al.
# Submitted via: ExactAudioCopy v1.1
#
DISCID=200bfc12
DTITLE=B.B.King - B.B.King - Milestones of a Blues Legend cd 06 - King
DTITLE=of the Blues (1960)
DYEAR=1960
DGENRE=Blues
TTITLE0=I've Got a Right to Love My Baby
TTITLE1=What Way to Go
TTITLE2=Long Nights
TTITLE3=Feel like A Million
TTITLE4=I'll Survive
TTITLE5=Good Man Gone Bad
TTITLE6=If I Lost You
TTITLE7=You're on the Top
TTITLE8=Partin' Time
TTITLE9=I'm King
TTITLE10=The Key to My Kingdom (bonus track)
TTITLE11=Be Careful With a Fool (bonus track)
TTITLE12=You Don't Know (bonus track)
TTITLE13=I Wonder (bonus track)
TTITLE14=I Need You So Bad (bonus track)
TTITLE15=Days Of Old (bonus track)
TTITLE16=Please Accept My Love (bonus track)
TTITLE17=Don't Look Now, But I've Got the Blues (bonus track)
EXTD=Milestones Of A Blues Legend: 10 Original Albums
EXTT0=
EXTT1=
EXTT2=
EXTT3=
EXTT4=
EXTT5=
EXTT6=
EXTT7=
EXTT8=
EXTT9=
EXTT10=
EXTT11=
EXTT12=
EXTT13=
EXTT14=
EXTT15=
EXTT16=
EXTT17=
PLAYORDER=
